<svg xmlns="http://www.w3.org/2000/svg" xmlns:xlink="http://www.w3.org/1999/xlink" width="500" zoomAndPan="magnify" viewBox="0 0 375 374.999991" height="500" preserveAspectRatio="xMidYMid meet" version="1.0"><defs><g/><clipPath id="6979f61788"><path d="M 187.5 0 C 83.945312 0 0 83.945312 0 187.5 C 0 291.054688 83.945312 375 187.5 375 C 291.054688 375 375 291.054688 375 187.5 C 375 83.945312 291.054688 0 187.5 0 Z M 187.5 0 " clip-rule="nonzero"/></clipPath><radialGradient gradientTransform="matrix(1, 0, 0, 1, 0.0000045, 0)" gradientUnits="userSpaceOnUse" r="530.330554" cx="0" id="4c85cb74ed" cy="0" fx="0" fy="0"><stop stop-opacity="1" stop-color="rgb(99.986267%, 84.117126%, 27.815247%)" offset="0"/><stop stop-opacity="1" stop-color="rgb(99.958801%, 83.755493%, 27.845764%)" offset="0.00390625"/><stop stop-opacity="1" stop-color="rgb(99.931335%, 83.39386%, 27.876282%)" offset="0.0078125"/><stop stop-opacity="1" stop-color="rgb(99.90387%, 83.032227%, 27.908325%)" offset="0.0117188"/><stop stop-opacity="1" stop-color="rgb(99.876404%, 82.670593%, 27.938843%)" offset="0.015625"/><stop stop-opacity="1" stop-color="rgb(99.848938%, 82.30896%, 27.970886%)" offset="0.0195312"/><stop stop-opacity="1" stop-color="rgb(99.821472%, 81.947327%, 28.001404%)" offset="0.0234375"/><stop stop-opacity="1" stop-color="rgb(99.794006%, 81.585693%, 28.033447%)" offset="0.0273438"/><stop stop-opacity="1" stop-color="rgb(99.766541%, 81.22406%, 28.063965%)" offset="0.03125"/><stop stop-opacity="1" stop-color="rgb(99.739075%, 80.862427%, 28.096008%)" offset="0.0351562"/><stop stop-opacity="1" stop-color="rgb(99.711609%, 80.500793%, 28.126526%)" offset="0.0390625"/><stop stop-opacity="1" stop-color="rgb(99.684143%, 80.13916%, 28.158569%)" offset="0.0429688"/><stop stop-opacity="1" stop-color="rgb(99.656677%, 79.777527%, 28.189087%)" offset="0.046875"/><stop stop-opacity="1" stop-color="rgb(99.630737%, 79.415894%, 28.22113%)" offset="0.0507812"/><stop stop-opacity="1" stop-color="rgb(99.603271%, 79.05426%, 28.251648%)" offset="0.0546875"/><stop stop-opacity="1" stop-color="rgb(99.575806%, 78.692627%, 28.283691%)" offset="0.0585938"/><stop stop-opacity="1" stop-color="rgb(99.54834%, 78.329468%, 28.314209%)" offset="0.0625"/><stop stop-opacity="1" stop-color="rgb(99.520874%, 77.967834%, 28.346252%)" offset="0.0664062"/><stop stop-opacity="1" stop-color="rgb(99.493408%, 77.606201%, 28.37677%)" offset="0.0703125"/><stop stop-opacity="1" stop-color="rgb(99.465942%, 77.244568%, 28.408813%)" offset="0.0742188"/><stop stop-opacity="1" stop-color="rgb(99.438477%, 76.882935%, 28.439331%)" offset="0.078125"/><stop stop-opacity="1" stop-color="rgb(99.411011%, 76.521301%, 28.471375%)" offset="0.0820312"/><stop stop-opacity="1" stop-color="rgb(99.383545%, 76.159668%, 28.501892%)" offset="0.0859375"/><stop stop-opacity="1" stop-color="rgb(99.356079%, 75.798035%, 28.533936%)" offset="0.0898438"/><stop stop-opacity="1" stop-color="rgb(99.328613%, 75.436401%, 28.564453%)" offset="0.09375"/><stop stop-opacity="1" stop-color="rgb(99.302673%, 75.074768%, 28.596497%)" offset="0.0976562"/><stop stop-opacity="1" stop-color="rgb(99.275208%, 74.713135%, 28.627014%)" offset="0.101562"/><stop stop-opacity="1" stop-color="rgb(99.247742%, 74.351501%, 28.657532%)" offset="0.105469"/><stop stop-opacity="1" stop-color="rgb(99.220276%, 73.989868%, 28.689575%)" offset="0.109375"/><stop stop-opacity="1" stop-color="rgb(99.19281%, 73.628235%, 28.720093%)" offset="0.113281"/><stop stop-opacity="1" stop-color="rgb(99.165344%, 73.266602%, 28.752136%)" offset="0.117188"/><stop stop-opacity="1" stop-color="rgb(99.137878%, 72.904968%, 28.782654%)" offset="0.121094"/><stop stop-opacity="1" stop-color="rgb(99.110413%, 72.543335%, 28.814697%)" offset="0.125"/><stop stop-opacity="1" stop-color="rgb(99.082947%, 72.181702%, 28.845215%)" offset="0.128906"/><stop stop-opacity="1" stop-color="rgb(99.055481%, 71.818542%, 28.877258%)" offset="0.132812"/><stop stop-opacity="1" stop-color="rgb(99.028015%, 71.456909%, 28.907776%)" offset="0.136719"/><stop stop-opacity="1" stop-color="rgb(99.000549%, 71.095276%, 28.939819%)" offset="0.140625"/><stop stop-opacity="1" stop-color="rgb(98.973083%, 70.733643%, 28.970337%)" offset="0.144531"/><stop stop-opacity="1" stop-color="rgb(98.947144%, 70.372009%, 29.00238%)" offset="0.148438"/><stop stop-opacity="1" stop-color="rgb(98.919678%, 70.010376%, 29.032898%)" offset="0.152344"/><stop stop-opacity="1" stop-color="rgb(98.892212%, 69.648743%, 29.064941%)" offset="0.15625"/><stop stop-opacity="1" stop-color="rgb(98.864746%, 69.287109%, 29.095459%)" offset="0.160156"/><stop stop-opacity="1" stop-color="rgb(98.83728%, 68.925476%, 29.127502%)" offset="0.164062"/><stop stop-opacity="1" stop-color="rgb(98.809814%, 68.563843%, 29.15802%)" offset="0.167969"/><stop stop-opacity="1" stop-color="rgb(98.782349%, 68.202209%, 29.190063%)" offset="0.171875"/><stop stop-opacity="1" stop-color="rgb(98.754883%, 67.840576%, 29.220581%)" offset="0.175781"/><stop stop-opacity="1" stop-color="rgb(98.727417%, 67.478943%, 29.252625%)" offset="0.179688"/><stop stop-opacity="1" stop-color="rgb(98.699951%, 67.11731%, 29.283142%)" offset="0.183594"/><stop stop-opacity="1" stop-color="rgb(98.672485%, 66.755676%, 29.315186%)" offset="0.1875"/><stop stop-opacity="1" stop-color="rgb(98.64502%, 66.394043%, 29.345703%)" offset="0.191406"/><stop stop-opacity="1" stop-color="rgb(98.61908%, 66.03241%, 29.377747%)" offset="0.195312"/><stop stop-opacity="1" stop-color="rgb(98.591614%, 65.66925%, 29.408264%)" offset="0.199219"/><stop stop-opacity="1" stop-color="rgb(98.564148%, 65.307617%, 29.438782%)" offset="0.203125"/><stop stop-opacity="1" stop-color="rgb(98.536682%, 64.945984%, 29.470825%)" offset="0.207031"/><stop stop-opacity="1" stop-color="rgb(98.509216%, 64.584351%, 29.501343%)" offset="0.210938"/><stop stop-opacity="1" stop-color="rgb(98.48175%, 64.222717%, 29.533386%)" offset="0.214844"/><stop stop-opacity="1" stop-color="rgb(98.454285%, 63.861084%, 29.563904%)" offset="0.21875"/><stop stop-opacity="1" stop-color="rgb(98.426819%, 63.499451%, 29.595947%)" offset="0.222656"/><stop stop-opacity="1" stop-color="rgb(98.399353%, 63.137817%, 29.626465%)" offset="0.226562"/><stop stop-opacity="1" stop-color="rgb(98.371887%, 62.776184%, 29.658508%)" offset="0.230469"/><stop stop-opacity="1" stop-color="rgb(98.344421%, 62.414551%, 29.689026%)" offset="0.234375"/><stop stop-opacity="1" stop-color="rgb(98.316956%, 62.052917%, 29.721069%)" offset="0.238281"/><stop stop-opacity="1" stop-color="rgb(98.28949%, 61.691284%, 29.751587%)" offset="0.242188"/><stop stop-opacity="1" stop-color="rgb(98.26355%, 61.329651%, 29.78363%)" offset="0.246094"/><stop stop-opacity="1" stop-color="rgb(98.236084%, 60.968018%, 29.814148%)" offset="0.25"/><stop stop-opacity="1" stop-color="rgb(98.208618%, 60.606384%, 29.846191%)" offset="0.253906"/><stop stop-opacity="1" stop-color="rgb(98.181152%, 60.244751%, 29.876709%)" offset="0.257812"/><stop stop-opacity="1" stop-color="rgb(98.153687%, 59.883118%, 29.908752%)" offset="0.261719"/><stop stop-opacity="1" stop-color="rgb(98.126221%, 59.521484%, 29.93927%)" offset="0.265625"/><stop stop-opacity="1" stop-color="rgb(98.098755%, 59.158325%, 29.971313%)" offset="0.269531"/><stop stop-opacity="1" stop-color="rgb(98.071289%, 58.796692%, 30.001831%)" offset="0.273438"/><stop stop-opacity="1" stop-color="rgb(98.043823%, 58.435059%, 30.033875%)" offset="0.277344"/><stop stop-opacity="1" stop-color="rgb(98.016357%, 58.073425%, 30.064392%)" offset="0.28125"/><stop stop-opacity="1" stop-color="rgb(97.988892%, 57.711792%, 30.096436%)" offset="0.285156"/><stop stop-opacity="1" stop-color="rgb(97.961426%, 57.350159%, 30.126953%)" offset="0.289062"/><stop stop-opacity="1" stop-color="rgb(97.935486%, 56.988525%, 30.158997%)" offset="0.292969"/><stop stop-opacity="1" stop-color="rgb(97.90802%, 56.626892%, 30.189514%)" offset="0.296875"/><stop stop-opacity="1" stop-color="rgb(97.880554%, 56.265259%, 30.220032%)" offset="0.300781"/><stop stop-opacity="1" stop-color="rgb(97.853088%, 55.903625%, 30.252075%)" offset="0.304688"/><stop stop-opacity="1" stop-color="rgb(97.825623%, 55.541992%, 30.282593%)" offset="0.308594"/><stop stop-opacity="1" stop-color="rgb(97.798157%, 55.180359%, 30.314636%)" offset="0.3125"/><stop stop-opacity="1" stop-color="rgb(97.770691%, 54.818726%, 30.345154%)" offset="0.316406"/><stop stop-opacity="1" stop-color="rgb(97.743225%, 54.457092%, 30.377197%)" offset="0.320312"/><stop stop-opacity="1" stop-color="rgb(97.715759%, 54.095459%, 30.407715%)" offset="0.324219"/><stop stop-opacity="1" stop-color="rgb(97.688293%, 53.733826%, 30.439758%)" offset="0.328125"/><stop stop-opacity="1" stop-color="rgb(97.660828%, 53.372192%, 30.470276%)" offset="0.332031"/><stop stop-opacity="1" stop-color="rgb(97.633362%, 53.010559%, 30.502319%)" offset="0.335938"/><stop stop-opacity="1" stop-color="rgb(97.605896%, 52.6474%, 30.532837%)" offset="0.339844"/><stop stop-opacity="1" stop-color="rgb(97.579956%, 52.285767%, 30.56488%)" offset="0.34375"/><stop stop-opacity="1" stop-color="rgb(97.55249%, 51.924133%, 30.595398%)" offset="0.347656"/><stop stop-opacity="1" stop-color="rgb(97.525024%, 51.5625%, 30.627441%)" offset="0.351562"/><stop stop-opacity="1" stop-color="rgb(97.497559%, 51.200867%, 30.657959%)" offset="0.355469"/><stop stop-opacity="1" stop-color="rgb(97.470093%, 50.839233%, 30.690002%)" offset="0.359375"/><stop stop-opacity="1" stop-color="rgb(97.442627%, 50.4776%, 30.72052%)" offset="0.363281"/><stop stop-opacity="1" stop-color="rgb(97.415161%, 50.115967%, 30.752563%)" offset="0.367188"/><stop stop-opacity="1" stop-color="rgb(97.387695%, 49.754333%, 30.783081%)" offset="0.371094"/><stop stop-opacity="1" stop-color="rgb(97.360229%, 49.3927%, 30.815125%)" offset="0.375"/><stop stop-opacity="1" stop-color="rgb(97.332764%, 49.031067%, 30.845642%)" offset="0.378906"/><stop stop-opacity="1" stop-color="rgb(97.305298%, 48.669434%, 30.877686%)" offset="0.382812"/><stop stop-opacity="1" stop-color="rgb(97.277832%, 48.3078%, 30.908203%)" offset="0.386719"/><stop stop-opacity="1" stop-color="rgb(97.251892%, 47.946167%, 30.940247%)" offset="0.390625"/><stop stop-opacity="1" stop-color="rgb(97.224426%, 47.584534%, 30.970764%)" offset="0.394531"/><stop stop-opacity="1" stop-color="rgb(97.19696%, 47.2229%, 31.001282%)" offset="0.398438"/><stop stop-opacity="1" stop-color="rgb(97.169495%, 46.861267%, 31.033325%)" offset="0.402344"/><stop stop-opacity="1" stop-color="rgb(97.142029%, 46.499634%, 31.063843%)" offset="0.40625"/><stop stop-opacity="1" stop-color="rgb(97.114563%, 46.136475%, 31.095886%)" offset="0.410156"/><stop stop-opacity="1" stop-color="rgb(97.087097%, 45.774841%, 31.126404%)" offset="0.414062"/><stop stop-opacity="1" stop-color="rgb(97.059631%, 45.413208%, 31.158447%)" offset="0.417969"/><stop stop-opacity="1" stop-color="rgb(97.032166%, 45.051575%, 31.188965%)" offset="0.421875"/><stop stop-opacity="1" stop-color="rgb(97.0047%, 44.689941%, 31.221008%)" offset="0.425781"/><stop stop-opacity="1" stop-color="rgb(96.977234%, 44.328308%, 31.251526%)" offset="0.429688"/><stop stop-opacity="1" stop-color="rgb(96.949768%, 43.966675%, 31.283569%)" offset="0.433594"/><stop stop-opacity="1" stop-color="rgb(96.922302%, 43.605042%, 31.314087%)" offset="0.4375"/><stop stop-opacity="1" stop-color="rgb(96.896362%, 43.243408%, 31.34613%)" offset="0.441406"/><stop stop-opacity="1" stop-color="rgb(96.868896%, 42.881775%, 31.376648%)" offset="0.445312"/><stop stop-opacity="1" stop-color="rgb(96.841431%, 42.520142%, 31.408691%)" offset="0.449219"/><stop stop-opacity="1" stop-color="rgb(96.813965%, 42.158508%, 31.439209%)" offset="0.453125"/><stop stop-opacity="1" stop-color="rgb(96.786499%, 41.796875%, 31.471252%)" offset="0.457031"/><stop stop-opacity="1" stop-color="rgb(96.759033%, 41.435242%, 31.50177%)" offset="0.460938"/><stop stop-opacity="1" stop-color="rgb(96.731567%, 41.073608%, 31.533813%)" offset="0.464844"/><stop stop-opacity="1" stop-color="rgb(96.704102%, 40.711975%, 31.564331%)" offset="0.46875"/><stop stop-opacity="1" stop-color="rgb(96.676636%, 40.350342%, 31.596375%)" offset="0.472656"/><stop stop-opacity="1" stop-color="rgb(96.64917%, 39.988708%, 31.626892%)" offset="0.476562"/><stop stop-opacity="1" stop-color="rgb(96.621704%, 39.625549%, 31.658936%)" offset="0.480469"/><stop stop-opacity="1" stop-color="rgb(96.594238%, 39.263916%, 31.689453%)" offset="0.484375"/><stop stop-opacity="1" stop-color="rgb(96.568298%, 38.902283%, 31.721497%)" offset="0.488281"/><stop stop-opacity="1" stop-color="rgb(96.540833%, 38.540649%, 31.752014%)" offset="0.492188"/><stop stop-opacity="1" stop-color="rgb(96.513367%, 38.179016%, 31.782532%)" offset="0.496094"/><stop stop-opacity="1" stop-color="rgb(96.499634%, 37.998962%, 31.799316%)" offset="1"/></radialGradient></defs><g clip-path="url(#6979f61788)"><rect x="-37.5" fill="url(#4c85cb74ed)" width="450" y="-37.499999" height="449.999989"/></g><g fill="#ffffff" fill-opacity="1"><g transform="translate(15.217174, 218.987373)"><g><path d="M 39.8125 -44.015625 C 41.59375 -45.992188 43.742188 -47.644531 46.265625 -48.96875 C 48.785156 -50.300781 51.34375 -50.96875 53.9375 -50.96875 C 56.875 -50.96875 59.617188 -50.472656 62.171875 -49.484375 C 64.734375 -48.492188 66.953125 -47.144531 68.828125 -45.4375 C 70.710938 -43.738281 72.179688 -41.78125 73.234375 -39.5625 C 74.296875 -37.34375 74.828125 -34.972656 74.828125 -32.453125 L 74.828125 0 L 58.453125 0 L 58.453125 -29.6875 C 58.453125 -31.113281 58.070312 -32.390625 57.3125 -33.515625 C 56.5625 -34.648438 55.203125 -35.21875 53.234375 -35.21875 C 51.253906 -35.21875 49.882812 -34.648438 49.125 -33.515625 C 48.375 -32.390625 48 -31.113281 48 -29.6875 L 48 0 L 31.625 0 L 31.625 -29.6875 C 31.625 -31.113281 31.25 -32.390625 30.5 -33.515625 C 29.75 -34.648438 28.382812 -35.21875 26.40625 -35.21875 C 24.425781 -35.21875 23.0625 -34.648438 22.3125 -33.515625 C 21.5625 -32.390625 21.1875 -31.113281 21.1875 -29.6875 L 21.1875 0 L 4.8125 0 L 4.8125 -32.453125 C 4.8125 -34.972656 5.335938 -37.34375 6.390625 -39.5625 C 7.453125 -41.78125 8.90625 -43.738281 10.75 -45.4375 C 12.59375 -47.144531 14.789062 -48.492188 17.34375 -49.484375 C 19.90625 -50.472656 22.6875 -50.96875 25.6875 -50.96875 C 28.28125 -50.96875 30.835938 -50.300781 33.359375 -48.96875 C 35.890625 -47.644531 38.039062 -45.992188 39.8125 -44.015625 Z M 39.8125 -44.015625 "/></g></g></g><g fill="#ffffff" fill-opacity="1"><g transform="translate(90.451528, 218.987373)"><g><path d="M 58.34375 0 L 41.96875 0 L 41.96875 -23.34375 C 41.96875 -27.4375 41.007812 -30.570312 39.09375 -32.75 C 37.1875 -34.9375 34.289062 -36.03125 30.40625 -36.03125 C 28.90625 -36.03125 27.46875 -35.738281 26.09375 -35.15625 C 24.726562 -34.582031 23.535156 -33.816406 22.515625 -32.859375 C 21.492188 -31.898438 20.675781 -30.753906 20.0625 -29.421875 C 19.445312 -28.097656 19.140625 -26.6875 19.140625 -25.1875 C 19.140625 -21.695312 20.179688 -18.910156 22.265625 -16.828125 C 24.347656 -14.753906 26.957031 -13.71875 30.09375 -13.71875 C 31.59375 -13.71875 32.988281 -13.851562 34.28125 -14.125 C 35.582031 -14.394531 36.78125 -14.738281 37.875 -15.15625 L 37.875 -1.640625 C 36.300781 -0.546875 34.628906 0.203125 32.859375 0.609375 C 31.085938 1.023438 29.070312 1.234375 26.8125 1.234375 C 23.75 1.234375 20.765625 0.601562 17.859375 -0.65625 C 14.960938 -1.925781 12.40625 -3.703125 10.1875 -5.984375 C 7.96875 -8.273438 6.175781 -11.003906 4.8125 -14.171875 C 3.445312 -17.347656 2.765625 -20.878906 2.765625 -24.765625 C 2.765625 -28.453125 3.445312 -31.878906 4.8125 -35.046875 C 6.175781 -38.222656 8.050781 -40.988281 10.4375 -43.34375 C 12.820312 -45.695312 15.6875 -47.554688 19.03125 -48.921875 C 22.375 -50.285156 26.0625 -50.96875 30.09375 -50.96875 C 34.394531 -50.96875 38.285156 -50.367188 41.765625 -49.171875 C 45.242188 -47.984375 48.210938 -46.332031 50.671875 -44.21875 C 53.128906 -42.101562 55.019531 -39.59375 56.34375 -36.6875 C 57.675781 -33.789062 58.34375 -30.640625 58.34375 -27.234375 Z M 58.34375 0 "/></g></g></g><g fill="#ffffff" fill-opacity="1"><g transform="translate(148.59177, 218.987373)"><g><path d="M 20.46875 -71.65625 L 20.46875 -34.5 L 21.1875 -34.5 C 22.28125 -34.5 23.234375 -34.6875 24.046875 -35.0625 C 24.867188 -35.4375 25.65625 -36.148438 26.40625 -37.203125 C 27.15625 -38.265625 27.921875 -39.800781 28.703125 -41.8125 C 29.492188 -43.820312 30.4375 -46.46875 31.53125 -49.75 L 48.3125 -49.75 L 43.703125 -36.640625 C 42.140625 -32.066406 40.023438 -29.472656 37.359375 -28.859375 L 37.359375 -28.65625 C 39.273438 -27.976562 40.914062 -27.226562 42.28125 -26.40625 C 43.644531 -25.59375 44.734375 -24.601562 45.546875 -23.4375 C 46.367188 -22.28125 46.96875 -20.914062 47.34375 -19.34375 C 47.71875 -17.769531 47.90625 -15.925781 47.90625 -13.8125 L 47.90625 0 L 32.140625 0 L 32.140625 -13 C 32.140625 -15.113281 31.578125 -16.734375 30.453125 -17.859375 C 29.328125 -18.984375 27.773438 -19.546875 25.796875 -19.546875 L 20.46875 -19.546875 L 20.46875 0 L 4.09375 0 L 4.09375 -71.65625 Z M 20.46875 -71.65625 "/></g></g></g><g fill="#ffffff" fill-opacity="1"><g transform="translate(195.370063, 218.987373)"><g><path d="M 27.84375 -18.125 L 21.59375 -27.9375 L 35 -36.75 C 33.84375 -37.425781 32.753906 -37.882812 31.734375 -38.125 C 30.710938 -38.363281 29.6875 -38.484375 28.65625 -38.484375 C 27.09375 -38.484375 25.675781 -38.125 24.40625 -37.40625 C 23.144531 -36.695312 22.050781 -35.742188 21.125 -34.546875 C 20.207031 -33.347656 19.492188 -31.984375 18.984375 -30.453125 C 18.472656 -28.921875 18.21875 -27.332031 18.21875 -25.6875 C 18.21875 -23.914062 18.523438 -22.28125 19.140625 -20.78125 C 19.753906 -19.28125 20.570312 -17.945312 21.59375 -16.78125 C 22.625 -15.625 23.800781 -14.722656 25.125 -14.078125 C 26.457031 -13.429688 27.84375 -13.109375 29.28125 -13.109375 C 32.144531 -13.109375 34.941406 -14.144531 37.671875 -16.21875 C 40.398438 -18.300781 42.476562 -20.984375 43.90625 -24.265625 L 55.6875 -18.21875 C 54.457031 -15.28125 52.882812 -12.617188 50.96875 -10.234375 C 49.0625 -7.847656 46.910156 -5.800781 44.515625 -4.09375 C 42.128906 -2.382812 39.554688 -1.066406 36.796875 -0.140625 C 34.035156 0.773438 31.15625 1.234375 28.15625 1.234375 C 24.664062 1.234375 21.367188 0.535156 18.265625 -0.859375 C 15.160156 -2.265625 12.429688 -4.175781 10.078125 -6.59375 C 7.722656 -9.019531 5.863281 -11.800781 4.5 -14.9375 C 3.132812 -18.082031 2.453125 -21.394531 2.453125 -24.875 C 2.453125 -28.351562 3.132812 -31.660156 4.5 -34.796875 C 5.863281 -37.941406 7.722656 -40.707031 10.078125 -43.09375 C 12.429688 -45.476562 15.160156 -47.382812 18.265625 -48.8125 C 21.367188 -50.25 24.664062 -50.96875 28.15625 -50.96875 C 33.882812 -50.96875 38.707031 -49.535156 42.625 -46.671875 C 46.550781 -43.804688 49.847656 -39.953125 52.515625 -35.109375 Z M 27.84375 -18.125 "/></g></g></g><g fill="#ffffff" fill-opacity="1"><g transform="translate(247.880501, 218.987373)"><g/></g></g><g fill="#ffffff" fill-opacity="1"><g transform="translate(271.934877, 218.987373)"><g><path d="M 23.546875 -63.5625 C 23.546875 -60.90625 22.640625 -58.6875 20.828125 -56.90625 C 19.023438 -55.132812 16.828125 -54.25 14.234375 -54.25 C 11.640625 -54.25 9.4375 -55.132812 7.625 -56.90625 C 5.8125 -58.6875 4.90625 -60.90625 4.90625 -63.5625 C 4.90625 -66.226562 5.8125 -68.445312 7.625 -70.21875 C 9.4375 -71.988281 11.640625 -72.875 14.234375 -72.875 C 16.828125 -72.875 19.023438 -71.988281 20.828125 -70.21875 C 22.640625 -68.445312 23.546875 -66.226562 23.546875 -63.5625 Z M 22.421875 -49.75 L 22.421875 0 L 6.046875 0 L 6.046875 -49.75 Z M 22.421875 -49.75 "/></g></g></g><g fill="#ffffff" fill-opacity="1"><g transform="translate(295.989239, 218.987373)"><g><path d="M 19.75 -62.03125 L 19.75 -50.15625 L 31.328125 -50.15625 L 31.328125 -35.21875 L 19.65625 -35.21875 L 19.65625 -21.90625 C 19.65625 -19.3125 20.21875 -17.5 21.34375 -16.46875 C 22.46875 -15.445312 24.703125 -14.9375 28.046875 -14.9375 C 28.585938 -14.9375 29.128906 -14.953125 29.671875 -14.984375 C 30.222656 -15.023438 30.84375 -15.082031 31.53125 -15.15625 L 31.53125 0 L 21.90625 0 C 19.101562 0 16.59375 -0.425781 14.375 -1.28125 C 12.164062 -2.132812 10.289062 -3.34375 8.75 -4.90625 C 7.21875 -6.476562 6.023438 -8.351562 5.171875 -10.53125 C 4.316406 -12.71875 3.890625 -15.144531 3.890625 -17.8125 L 3.890625 -62.03125 Z M 19.75 -62.03125 "/></g></g></g><g fill="#ffffff" fill-opacity="1"><g transform="translate(325.673421, 218.987373)"><g><path d="M 26.609375 -71.65625 L 25.1875 -22.625 L 8.796875 -22.625 L 7.375 -71.65625 Z M 27.4375 -9.21875 C 27.4375 -7.851562 27.175781 -6.554688 26.65625 -5.328125 C 26.144531 -4.097656 25.429688 -2.988281 24.515625 -2 C 23.597656 -1.007812 22.503906 -0.222656 21.234375 0.359375 C 19.972656 0.941406 18.554688 1.234375 16.984375 1.234375 C 15.484375 1.234375 14.082031 0.941406 12.78125 0.359375 C 11.488281 -0.222656 10.382812 -0.988281 9.46875 -1.9375 C 8.550781 -2.894531 7.832031 -4.003906 7.3125 -5.265625 C 6.800781 -6.535156 6.546875 -7.851562 6.546875 -9.21875 C 6.546875 -10.644531 6.816406 -11.988281 7.359375 -13.25 C 7.910156 -14.519531 8.644531 -15.628906 9.5625 -16.578125 C 10.488281 -17.535156 11.582031 -18.285156 12.84375 -18.828125 C 14.101562 -19.378906 15.484375 -19.65625 16.984375 -19.65625 C 18.492188 -19.65625 19.894531 -19.363281 21.1875 -18.78125 C 22.488281 -18.195312 23.597656 -17.425781 24.515625 -16.46875 C 25.429688 -15.519531 26.144531 -14.414062 26.65625 -13.15625 C 27.175781 -11.894531 27.4375 -10.582031 27.4375 -9.21875 Z M 27.4375 -9.21875 "/></g></g></g></svg>